<svg id="ehY1TI8CLRw1" xmlns="http://www.w3.org/2000/svg" xmlns:xlink="http://www.w3.org/1999/xlink" viewBox="0 0 300 300" shape-rendering="geometricPrecision" text-rendering="geometricPrecision"><path d="M29.56588,123.362629l44.155184,10.535429c4.370941-11.679571,10.233932-33.030906,23.208692-45.954905c11.158593-11.114939,28.903267-14.752171,40.144399-14.386392c9.443843.147915,23.273898,1.080345,33.08515,3.116273c17.299739,3.58986,28.141236,6.158676,28.141237,19.05174h-23.698508l47.582839,55.859552l32.748995-55.859552h-21.317904C247.694429,31.669551,174.207551,30.729,137.074155,29.948492c-17.87781-1.226373-55.33765,3.090611-74.332762,22.228377-24.520002,24.704148-27.242994,56.630799-33.175513,71.18576Z" transform="matrix(-1.3 0 0-1.3 331.414028 336.508757)" fill="#74c0fc" stroke-width="0.6"/><path d="M29.56588,123.362629l44.155184,10.535429c4.370941-11.679571,10.233932-33.030906,23.208692-45.954905c11.158593-11.114939,28.903267-14.752171,40.144399-14.386392c9.443843.147915,23.273898,1.080345,33.08515,3.116273c17.299739,3.58986,28.141236,6.158676,28.141237,19.05174h-23.698508l47.582839,55.859552l32.748995-55.859552h-21.317904C247.694429,31.669551,174.207551,30.729,137.074155,29.948492c-17.87781-1.226373-55.33765,3.090611-74.332762,22.228377-24.520002,24.704148-27.242994,56.630799-33.175513,71.18576Z" transform="matrix(1.3 0 0 1.3-33.423236-35.707593)" fill="#74c0fc" stroke-width="0.6"/><polygon points="0,-41.231056 35.707142,20.615528 -35.707142,20.615528 0,-41.231056" transform="matrix(.003787 1.999996-1.999996 0.003787 151.573139 146.589639)" fill="#e53e3e" stroke-width="0"/></svg>
